Coordinates
version=1
nRows=24
nColumns=24
inDegrees=yes

Units are S.I. units (second, meters, Newtons, ...)
Angles are in degrees.

endheader
time	pelvis_tilt	pelvis_list	pelvis_rotation	pelvis_tx	pelvis_ty	pelvis_tz	hip_flexion_r	hip_adduction_r	hip_rotation_r	knee_angle_r	ankle_angle_r	subtalar_angle_r	mtp_angle_r	hip_flexion_l	hip_adduction_l	hip_rotation_l	knee_angle_l	ankle_angle_l	subtalar_angle_l	mtp_angle_l	lumbar_extension	lumbar_bending	lumbar_rotation
      3.41500000	    -12.82346674	     11.55052661	    -12.89293776	     -0.74030675	     -0.01540064	      0.01258065	     22.39953599	    -15.84877983	      2.19164213	    -60.38984779	    -26.93550853	     15.73492862	     39.44235495	     25.25396253	      9.66149120	    -17.82316030	     -9.90221184	    -10.32442976	      2.94393556	     10.09344430	     12.95891889	    -10.83138441	      7.53946969
      3.42000000	    -12.78941630	     11.31244805	    -12.60954893	     -0.73461625	     -0.01437892	      0.01188104	     22.88693420	    -15.53403593	      2.24818682	    -60.83724084	    -26.38991518	     16.14792602	     39.84955447	     24.63732004	      9.73722567	    -17.46940417	     -9.59282144	    -10.09869098	      3.12720808	      9.97370942	     12.81620563	    -10.64822917	      7.15495499
      3.42500000	    -12.69537908	     11.05816839	    -12.29169940	     -0.72885805	     -0.01331791	      0.01107091	     23.26429940	    -15.25295064	      2.20448767	    -61.19256264	    -25.85795582	     16.39170039	     40.57150879	     23.93605377	      9.84662202	    -16.95892540	     -9.26383403	     -9.88677004	      3.07738047	      9.65434306	     12.61096439	    -10.46088223	      6.71687341
      3.43000000	    -12.69084043	     10.81113085	    -12.01441471	     -0.72326158	     -0.01239790	      0.01039616	     23.77912783	    -14.91079930	      2.25679099	    -61.54750461	    -25.29164783	     16.77871947	     40.99794716	     23.35513466	      9.88457358	    -16.55594090	     -8.95379814	     -9.71176423	      3.16913836	      9.63323626	     12.50068403	    -10.25841446	      6.37303922
      3.43500000	    -12.61397060	     10.54802559	    -11.67563235	     -0.71758904	     -0.01143182	      0.00955898	     24.16158821	    -14.62512950	      2.17306158	    -61.81618039	    -24.72061850	     16.97246132	     41.66218018	     22.67782796	      9.96882569	    -16.00194988	     -8.62790732	     -9.55543601	      3.04909759	      9.41998401	     12.30752015	    -10.05909606	      5.93299399
      3.44000000	    -12.59335289	     10.29585889	    -11.36172988	     -0.71199690	     -0.01057041	      0.00879296	     24.62705847	    -14.31390988	      2.14187365	    -62.06604832	    -24.11756883	     17.22513514	     42.11713534	     22.07849082	     10.01341994	    -15.55938952	     -8.31879698	     -9.38637877	      3.07564263	      9.33351678	     12.18323761	     -9.85379076	      5.54337934
      3.44500000	    -12.59065471	     10.04017277	    -11.06406252	     -0.70647168	     -0.00976473	      0.00806548	     25.12055486	    -13.98269173	      2.12888476	    -62.28602856	    -23.49979534	     17.46941794	     42.39507033	     21.50618210	     10.02759050	    -15.14441505	     -8.01631598	     -9.21673723	      3.14889077	      9.32142436	     12.07854641	     -9.63732927	      5.19148671
      3.45000000	    -12.56720167	      9.77859304	    -10.72123094	     -0.70094271	     -0.00897888	      0.00725827	     25.56508316	    -13.68713782	      2.02803845	    -62.45726842	    -22.85738514	     17.59409653	     42.63442571	     20.91128692	     10.05586890	    -14.67815045	     -7.71739935	     -9.05680374	      3.17520248	      9.27248370	     11.94675520	     -9.42657675	      4.77853660
      3.45500000	    -12.53863140	      9.51655018	    -10.38207512	     -0.69545737	     -0.00822028	      0.00644570	     26.00358088	    -13.39530544	      1.91220076	    -62.58725940	    -22.20514289	     17.61630776	     42.81116440	     20.31532569	     10.07563435	    -14.20557378	     -7.42078881	     -8.90148095	      3.17795745	      9.20383770	     11.81130224	     -9.21353695	      4.37554720
      3.46000000	    -12.51652126	      9.26197421	    -10.04580577	     -0.69001185	     -0.00750877	      0.00563739	     26.45119774	    -13.11174051	      1.78993795	    -62.67989890	    -21.53346323	     17.56383338	     42.91060063	     19.73442993	     10.08939734	    -13.74998695	     -7.12968542	     -8.74976228	      3.19795479	      9.14588673	     11.68562293	     -9.00406349	      3.98711605
      3.46500000	    -12.48155198	      9.00594922	     -9.71160375	     -0.68461346	     -0.00682044	      0.00481176	     26.88094781	    -12.83468621	      1.65190754	    -62.73044312	    -20.83647429	     17.43483427	     42.91247798	     19.14777361	     10.09775670	    -13.29280243	     -6.84701314	     -8.59622930	      3.18159733	      9.06386019	     11.54583079	     -8.79049806	      3.59338082
      3.47000000	    -12.47660627	      8.75381299	     -9.36412389	     -0.67920984	     -0.00618992	      0.00400114	     27.33316332	    -12.56376932	      1.49116334	    -62.73461415	    -20.13848788	     17.23176042	     42.85499533	     18.59520354	     10.09180716	    -12.84297463	     -6.56669631	     -8.44158706	      3.25114742	      9.04316995	     11.44731708	     -8.57977430	      3.21732969
      3.47500000	    -12.45922134	      8.49856689	     -9.02272136	     -0.67384828	     -0.00557542	      0.00318527	     27.76653178	    -12.29323913	      1.31896415	    -62.69333647	    -19.42043280	     16.94032846	     42.71120122	     18.03820081	     10.07636497	    -12.39755114	     -6.29676366	     -8.29040796	      3.28986407	      9.00902321	     11.33545194	     -8.36367058	      2.84058411
      3.48000000	    -12.43874037	      8.24320503	     -8.68335434	     -0.66851279	     -0.00499047	      0.00236602	     28.18929281	    -12.02650697	      1.13506082	    -62.60489367	    -18.68930670	     16.58319655	     42.48078946	     17.48477613	     10.05231577	    -11.95003116	     -6.03555147	     -8.13791808	      3.31969712	      8.96702850	     11.22266355	     -8.14384105	      2.46815804
      3.48500000	    -12.41745615	      7.98903610	     -8.34890212	     -0.66320797	     -0.00443249	      0.00155849	     28.60570969	    -11.76011237	      0.94630109	    -62.47084014	    -17.95000196	     16.16490167	     42.16406577	     16.93910989	     10.01879024	    -11.50958581	     -5.78446397	     -7.98578522	      3.34693849	      8.91801330	     11.11370173	     -7.92377350	      2.10507146
      3.49000000	    -12.34150315	      7.72618518	     -8.00081634	     -0.65787855	     -0.00385940	      0.00068200	     28.93805521	    -11.51690547	      0.73546082	    -62.29894290	    -17.12969998	     15.90492245	     41.39813336	     16.32894476	      9.99077613	    -10.98437393	     -5.53589828	     -7.81439796	      3.29051554	      8.76574167	     10.94736973	     -7.69741494	      1.73999387
      3.49500000	    -12.36950168	      7.51038778	     -7.71780342	     -0.65266998	     -0.00344728	     -0.00002158	     29.43319041	    -11.25230274	      0.58056685	    -62.08903583	    -16.43863230	     15.23462673	     41.10053251	     15.87237037	      9.94856463	    -10.66299378	     -5.31613006	     -7.65603669	      3.37816849	      8.77636907	     10.91017447	     -7.49666513	      1.45195439
      3.50000000	    -12.36529496	      7.25293998	     -7.39204945	     -0.64743892	     -0.00300085	     -0.00080606	     29.84352005	    -10.98636452	      0.35404553	    -61.80546836	    -15.74252251	     14.61887820	     40.66837863	     15.37864528	      9.87672373	    -10.26514824	     -5.11288382	     -7.48095152	      3.44717453	      8.77070410	     10.83072173	     -7.25983306	      1.10693781
      3.50500000	    -12.28171411	      6.98559508	     -7.04147705	     -0.64218731	     -0.00252478	     -0.00164889	     30.13871365	    -10.75177304	      0.09695660	    -61.49655624	    -14.94434375	     14.23948700	     39.64564310	     14.79475210	      9.81231247	     -9.77290369	     -4.91473987	     -7.27836231	      3.45451449	      8.67919507	     10.66467964	     -7.02981215	      0.76145620
      3.51000000	    -12.31674365	      6.80047074	     -6.81295393	     -0.63706926	     -0.00226680	     -0.00227843	     30.64027927	    -10.50192618	     -0.03529930	    -61.15207260	    -14.31699035	     13.44363457	     39.31052384	     14.38462108	      9.76482681	     -9.50277193	     -4.73827650	     -7.09347889	      3.51356134	      8.70822865	     10.65458446	     -6.83933937	      0.56953969
      3.51500000	    -12.25438705	      6.52256344	     -6.45205407	     -0.63187620	     -0.00185246	     -0.00308516	     30.92747545	    -10.26392222	     -0.33455689	    -60.73341581	    -13.57360009	     12.98366624	     38.26851134	     13.85095487	      9.66615431	     -9.05873634	     -4.57787143	     -6.88934786	      3.58659935	      8.67088716	     10.51268488	     -6.60157482	      0.19389974
      3.52000000	    -12.24369803	      6.33525119	     -6.21434329	     -0.62677362	     -0.00160944	     -0.00367104	     31.34383825	    -10.02977990	     -0.49275530	    -60.32263039	    -12.87511934	     12.35694595	     37.20169345	     13.39898575	      9.61140836	     -8.74422705	     -4.41711470	     -6.69294298	      3.62424024	      8.63849876	     10.45726552	     -6.42200483	     -0.02171558
      3.52500000	    -12.28680457	      6.11878091	     -5.97187403	     -0.62171422	     -0.00142368	     -0.00429635	     31.78812017	     -9.77193745	     -0.68544837	    -59.79558647	    -12.31866248	     11.59770867	     36.87308599	     13.03301486	      9.51522388	     -8.47625757	     -4.30235799	     -6.49178605	      3.67278292	      8.67858995	     10.45302968	     -6.19955847	     -0.21946847
      3.53000000	    -12.21684146	      5.87223275	     -5.64693452	     -0.61660177	     -0.00114451	     -0.00502685	     32.04855544	     -9.56594783	     -0.98747894	    -59.23170201	    -11.66054251	     11.08786313	     35.91585213	     12.53102543	      9.41670031	     -8.04924515	     -4.19331292	     -6.24421367	      3.73792176	      8.65078027	     10.32030314	     -5.97934746	     -0.52480587
